<?xml version="1.0" encoding="utf-8"?>
<!-- Generator: Adobe Illustrator 18.1.0, SVG Export Plug-In . SVG Version: 6.00 Build 0)  -->
<!DOCTYPE svg PUBLIC "-//W3C//DTD SVG 1.1//EN" "http://www.w3.org/Graphics/SVG/1.1/DTD/svg11.dtd">
<svg version="1.1" id="Layer_1" xmlns="http://www.w3.org/2000/svg" xmlns:xlink="http://www.w3.org/1999/xlink" x="0px" y="0px"
	 viewBox="0 0 166.1 162.7" enable-background="new 0 0 166.1 162.7" xml:space="preserve">
<g>
	<g>
		<path fill="#5E5E5E" d="M117.1,24c4.5,0,8.9,1,13.1,3c8.1,3.8,14.2,10,17.1,17.3c3,7.6,2.7,15.9-0.9,24.2
			c-5,11.4-26.2,34.8-63.1,69.6c-36.9-34.7-58.1-58.1-63.1-69.6c-3.6-8.2-3.9-16.6-0.8-24.2c2.9-7.4,9-13.5,17.1-17.3
			c4.2-2,8.6-3,13.1-3c2.9,0,5.8,0.4,8.6,1.2c6.2,1.8,12.8,7.2,17.7,14.5l7.5,11.2l7.5-11.2c4.9-7.3,11.5-12.7,17.7-14.5
			C111.3,24.4,114.2,24,117.1,24 M117.1,15c-3.8,0-7.5,0.6-11.2,1.6c-9,2.6-17.1,9.8-22.6,18.1c-5.6-8.3-13.6-15.5-22.6-18.1
			C57,15.6,53.3,15,49.5,15c-5.7,0-11.4,1.2-16.9,3.8C22.2,23.7,14.7,31.6,11,41c-3.7,9.4-3.8,20.3,1,31.1
			c10.1,23.2,71,77.5,71.3,78.5c0.3-0.9,61.3-55.3,71.3-78.5c4.7-10.8,4.7-21.7,1-31.1c-3.7-9.4-11.2-17.3-21.6-22.1
			C128.5,16.2,122.7,15,117.1,15L117.1,15z"/>
	</g>
</g>
<polyline fill="none" stroke="#ED1C24" stroke-width="4" stroke-miterlimit="10" points="12.3,97.9 64.8,97.9 77.1,62.7 88.4,120.9 
	101.4,97.9 154.3,97.9 "/>
</svg>
