<?xml version="1.0" encoding="utf-8"?>
<!-- Generator: Adobe Illustrator 18.1.0, SVG Export Plug-In . SVG Version: 6.00 Build 0)  -->
<!DOCTYPE svg PUBLIC "-//W3C//DTD SVG 1.1//EN" "http://www.w3.org/Graphics/SVG/1.1/DTD/svg11.dtd">
<svg version="1.1" id="Layer_1" xmlns="http://www.w3.org/2000/svg" xmlns:xlink="http://www.w3.org/1999/xlink" x="0px" y="0px"
	 viewBox="0 0 166.1 162.7" enable-background="new 0 0 166.1 162.7" xml:space="preserve">
<rect x="58.1" y="22.5" fill="none" stroke="#5E5E5E" stroke-width="9" stroke-linecap="square" stroke-miterlimit="10" width="49" height="122"/>
<path fill="#FFFFFF" stroke="#5E5E5E" stroke-width="9" stroke-linecap="square" stroke-miterlimit="10" d="M109.7,113.2
	c-3.1,2.8-6.6,5.2-10.3,6.9c-5.2,2.4-10.9,3.6-16.7,3.6c-5.3,0-10.3-1-15.2-2.9c-3.8-1.6-7.2-3.6-10.3-6.2c-9-7.4-14.7-18.5-14.7-31
	s5.7-23.6,14.7-31c3.1-2.6,6.6-4.7,10.3-6.2c4.7-1.9,9.8-2.9,15.2-2.9c6,0,11.7,1.4,16.7,3.6c3.8,1.7,7.2,4.1,10.3,6.9
	c7.9,7.4,12.9,17.8,12.9,29.5S117.7,105.7,109.7,113.2z"/>
<path fill="#FFFFFF" stroke="#5E5E5E" stroke-width="4" stroke-linecap="square" stroke-miterlimit="10" d="M101.8,104.5
	c-2.2,2-4.6,3.7-7.3,4.9c-3.7,1.7-7.7,2.6-11.8,2.6c-3.8,0-7.3-0.7-10.7-2.1c-2.7-1.1-5.1-2.6-7.3-4.4c-6.4-5.3-10.4-13.1-10.4-22
	s4-16.7,10.4-22c2.2-1.8,4.6-3.3,7.3-4.4c3.3-1.3,7-2.1,10.7-2.1c4.3,0,8.3,1,11.8,2.6c2.7,1.2,5.1,2.9,7.3,4.9
	c5.6,5.3,9.2,12.6,9.2,20.9S107.4,99.2,101.8,104.5z"/>
<path fill="none" stroke="#ED1C24" stroke-width="4" stroke-linecap="square" stroke-miterlimit="10" d="M126.7,50.4
	c8.9,8.3,14.4,19.8,14.4,32.9s-5.6,25-14.4,33.3"/>
<path fill="none" stroke="#ED1C24" stroke-width="4" stroke-linecap="square" stroke-miterlimit="10" d="M40.3,118.1
	C30.3,109.9,24,97.5,24,83.5s6.4-26.4,16.4-34.7"/>
<path fill="none" stroke="#ED1C24" stroke-width="4" stroke-linecap="square" stroke-miterlimit="10" d="M139.1,41.1
	c11.3,10.6,18.5,25.4,18.5,42.1s-7.1,32-18.5,42.6"/>
<path fill="none" stroke="#ED1C24" stroke-width="4" stroke-linecap="square" stroke-miterlimit="10" d="M28.5,127.8
	C15.7,117.2,7.6,101.5,7.6,83.5s8.1-33.7,20.9-44.3"/>
<rect x="76.1" y="131.1" fill="#ED1C24" width="12" height="6"/>
</svg>
